<svg width="260" height="152" viewBox="0 0 260 152" fill="none" xmlns="http://www.w3.org/2000/svg">
<g clip-path="url(#clip0_181_422)">
<path d="M21.9519 144.144H17.9879V134.307H14.7298V147.002H21.8976V144.144H21.9519ZM24.8299 146.178C24.8299 148.101 24.124 148.816 22.6035 148.376C22.4949 148.376 22.4406 148.321 22.332 148.266L21.5718 151.014C21.7347 151.124 21.8976 151.179 22.1148 151.234C25.6987 152.607 28.088 150.574 28.088 147.057V134.252H24.8842V146.178H24.8299ZM59.0399 142.111H63.2212V139.418H59.0399V137.11H63.9271V134.307H55.8362V147.002H64.3615V144.309H59.0399V142.111ZM70.1175 142.111H74.2987V139.418H70.1175V137.11H75.0046V134.307H66.9137V147.002H75.439V144.309H70.1175V142.111ZM4.79259 134.307L0.502762 147.002H3.70656L4.41248 144.694H8.53941L9.24533 147.002H12.6663L8.3222 134.307H4.79259ZM5.33561 141.781L6.53025 137.77L7.72488 141.781H5.33561ZM34.2241 134.307L29.9343 147.002H33.1381L33.844 144.694H37.9709L38.6768 147.002H42.0978L37.7537 134.307H34.2241ZM34.8214 141.781L36.016 137.77L37.2107 141.781H34.8214ZM96.6167 134.307H93.0328L88.743 147.002H92.0011L92.707 144.694H96.8339L97.5398 147.002H100.961L96.6167 134.307ZM93.6844 141.781L94.879 137.77L96.0737 141.781H93.6844ZM86.1365 142.386C85.6478 141.287 85.4848 141.012 85.0504 140.792C85.1047 140.792 85.2133 140.737 85.2676 140.682C86.6795 140.023 87.3311 138.374 86.7881 136.561C86.3537 135.077 85.2133 134.252 83.0413 134.252H77.9369V146.947H81.1407V142.221H81.9009C82.444 142.221 82.7155 142.441 82.987 143.1L83.1499 143.485L83.2585 143.705L84.4531 146.892H87.8198L86.2451 142.716C86.2451 142.661 86.2451 142.551 86.1365 142.386ZM83.4757 139.088C83.3128 139.308 83.0413 139.418 82.3897 139.473H81.1407V137.11H82.1181C82.1725 137.11 82.2811 137.11 82.3354 137.11C82.8241 137.11 83.0413 137.165 83.2585 137.33C83.8015 137.605 83.9101 138.484 83.4757 139.088ZM53.0125 137.55V134.307H44.3242V137.11H48.7769L44.2156 143.76V147.002H53.1211V144.199H48.4511L53.0125 137.55Z" fill="#222D66"/>
<path d="M111.007 134.308L113.939 142.991L116.708 134.308H120.618V147.002H118.012V137.99L114.916 147.002H112.799L109.703 138.1V147.002H107.097V134.308H111.007Z" fill="#222D66"/>
<path d="M132.401 134.308V136.616H125.777V139.363H131.858V141.507H125.777V144.639H132.564V147.002H123.007V134.308H132.401Z" fill="#222D66"/>
<path d="M139.841 134.308C140.655 134.308 141.416 134.418 142.121 134.692C142.827 134.967 143.425 135.352 143.913 135.846C144.402 136.341 144.837 137 145.108 137.825C145.38 138.594 145.542 139.528 145.542 140.572C145.542 141.507 145.434 142.331 145.217 143.155C144.999 143.925 144.619 144.639 144.131 145.189C143.642 145.738 143.045 146.233 142.339 146.508C141.633 146.837 140.818 147.002 139.841 147.002H134.411V134.308H139.841ZM139.624 144.639C140.004 144.639 140.384 144.584 140.764 144.419C141.144 144.309 141.47 144.09 141.741 143.76C142.013 143.485 142.284 143.045 142.447 142.551C142.61 142.056 142.719 141.452 142.719 140.792C142.719 140.133 142.664 139.583 142.556 139.034C142.447 138.539 142.23 138.1 141.959 137.715C141.687 137.33 141.307 137.055 140.818 136.891C140.33 136.671 139.787 136.616 139.081 136.616H137.126V144.639H139.624Z" fill="#222D66"/>
<path d="M150.212 134.308H147.443V147.002H150.212V134.308Z" fill="#222D66"/>
<path d="M158.846 134.308L163.516 147.002H160.693L159.769 144.2H155.1L154.122 147.002H151.353L156.077 134.308H158.846ZM159.009 142.056L157.435 137.385H157.38L155.751 142.056H159.009Z" fill="#222D66"/>
<path d="M172.313 134.308H169.544V147.002H172.313V134.308Z" fill="#222D66"/>
<path d="M177.472 134.308L182.685 142.826H182.739V134.308H185.291V147.002H182.522L177.309 138.484V147.002H174.702V134.308H177.472Z" fill="#222D66"/>
<path d="M189.853 143.869C190.016 144.144 190.233 144.419 190.45 144.584C190.721 144.749 190.993 144.914 191.319 144.969C191.645 145.078 192.025 145.078 192.351 145.078C192.622 145.078 192.839 145.078 193.165 145.024C193.437 144.969 193.708 144.914 193.98 144.804C194.251 144.694 194.414 144.529 194.577 144.309C194.74 144.089 194.848 143.814 194.848 143.54C194.848 143.21 194.74 142.935 194.523 142.715C194.305 142.496 194.034 142.331 193.654 142.166C193.328 142.001 192.894 141.891 192.459 141.781C192.025 141.671 191.59 141.561 191.102 141.451C190.613 141.342 190.178 141.177 189.744 141.012C189.31 140.847 188.875 140.627 188.549 140.352C188.224 140.078 187.898 139.748 187.681 139.308C187.463 138.923 187.355 138.429 187.355 137.824C187.355 137.165 187.518 136.615 187.789 136.121C188.061 135.626 188.441 135.242 188.875 134.912C189.31 134.582 189.798 134.362 190.396 134.197C190.939 134.032 191.536 133.978 192.079 133.978C192.731 133.978 193.382 134.032 193.98 134.197C194.577 134.362 195.12 134.582 195.609 134.912C196.097 135.242 196.423 135.681 196.749 136.176C197.02 136.67 197.183 137.33 197.183 138.044H194.523C194.523 137.66 194.414 137.33 194.305 137.11C194.197 136.835 193.98 136.67 193.762 136.505C193.545 136.341 193.274 136.286 193.002 136.231C192.731 136.176 192.405 136.121 192.079 136.121C191.862 136.121 191.645 136.121 191.427 136.176C191.21 136.231 190.993 136.286 190.83 136.451C190.667 136.56 190.504 136.725 190.396 136.89C190.287 137.055 190.233 137.275 190.233 137.55C190.233 137.824 190.287 137.989 190.396 138.154C190.504 138.319 190.667 138.429 190.939 138.594C191.21 138.704 191.59 138.869 192.079 138.978C192.568 139.088 193.219 139.253 193.98 139.473C194.197 139.528 194.523 139.583 194.957 139.748C195.391 139.858 195.772 140.078 196.206 140.352C196.64 140.627 196.966 141.012 197.292 141.451C197.563 141.891 197.726 142.496 197.726 143.21C197.726 143.814 197.618 144.309 197.401 144.804C197.183 145.298 196.858 145.738 196.423 146.068C195.989 146.452 195.446 146.727 194.794 146.892C194.142 147.112 193.382 147.222 192.513 147.222C191.808 147.222 191.156 147.112 190.504 146.947C189.853 146.782 189.255 146.507 188.767 146.123C188.278 145.738 187.898 145.298 187.572 144.694C187.3 144.144 187.138 143.43 187.138 142.66H189.798C189.581 143.21 189.69 143.54 189.853 143.869Z" fill="#222D66"/>
<path d="M198.161 136.616V134.308H208.424V136.616H204.677V147.002H201.908V136.616H198.161Z" fill="#222D66"/>
<path d="M212.605 134.308H209.836V147.002H212.605V134.308Z" fill="#222D66"/>
<path d="M214.071 136.616V134.308H224.334V136.616H220.587V147.002H217.818V136.616H214.071Z" fill="#222D66"/>
<path d="M234.977 146.013C234.054 146.837 232.697 147.277 231.068 147.277C229.384 147.277 228.081 146.837 227.104 146.013C226.18 145.189 225.692 143.925 225.692 142.166V134.252H228.461V142.166C228.461 142.496 228.515 142.825 228.57 143.155C228.624 143.485 228.733 143.76 228.95 144.034C229.113 144.309 229.384 144.474 229.71 144.639C230.036 144.804 230.47 144.859 231.068 144.859C232.045 144.859 232.751 144.639 233.131 144.199C233.511 143.76 233.674 143.045 233.674 142.111V134.198H236.443V142.111C236.389 143.925 235.955 145.189 234.977 146.013Z" fill="#222D66"/>
<path d="M237.801 136.616V134.308H248.064V136.616H244.317V147.002H241.548V136.616H237.801Z" fill="#222D66"/>
<path d="M258.87 134.308V136.616H252.3V139.363H258.327V141.507H252.3V144.639H259.033V147.002H249.53V134.308H258.87Z" fill="#222D66"/>
<path d="M138.429 92.7066C138.266 92.7615 138.212 93.0363 138.32 93.421C138.429 93.7507 139.026 95.3444 139.026 95.3444C139.461 96.4985 140.167 97.8724 141.09 98.5318C142.121 99.2462 142.61 99.0264 142.827 98.9165C142.99 98.8066 143.642 98.4219 143.37 97.3778C143.099 96.2786 142.99 95.9489 142.773 95.5642C142.556 95.1796 142.284 94.9048 142.176 94.9597C142.067 94.9597 142.176 95.3444 142.176 95.5642C142.176 95.9489 142.013 96.2787 141.687 96.4435C141.416 96.5534 140.655 96.8282 140.112 95.839C139.678 95.0147 139.243 93.9156 139.081 93.476C138.918 93.1462 138.755 92.7066 138.538 92.7066C138.483 92.7066 138.429 92.7066 138.429 92.7066ZM122.519 95.7291L125.885 98.5868L129.143 94.5201L125.777 91.6624L122.519 95.7291ZM123.279 88.5849L126.645 91.4426L129.958 87.3759L126.591 84.4633L123.279 88.5849ZM144.837 78.5282L148.801 80.4516L150.973 75.6705L147.009 73.7471L144.837 78.5282ZM124.311 75.1759C125.994 79.1876 128.546 82.7048 131.424 85.2876C131.75 83.1993 132.076 81.7156 132.347 80.6165C129.361 78.4183 127.243 76.0552 125.885 73.6921L124.311 75.1759ZM131.804 70.0651L135.768 71.9885L137.94 67.2074L133.976 65.284L131.804 70.0651ZM112.69 50.9407C112.69 50.9407 110.192 52.7542 109.215 55.1173C108.617 56.6011 108.672 58.1398 108.997 58.9092C109.323 59.6786 110.192 60.393 111.224 59.5137C111.984 58.9092 112.31 58.0299 112.473 57.3155C112.581 56.8759 112.581 56.6011 112.581 56.3813C112.581 56.1065 112.473 55.8867 112.256 55.9416C111.55 56.1615 111.984 57.1507 111.441 57.6452C111.061 57.8651 110.029 57.7552 109.866 56.711C109.649 55.6669 110.409 54.3479 111.115 53.5236C111.821 52.6443 113.016 51.4903 113.016 51.4903C113.016 51.4903 113.885 50.7759 113.613 50.3912L113.559 50.3362C113.287 50.4461 112.69 50.9407 112.69 50.9407ZM137.071 48.3029C136.746 48.6326 135.388 50.2263 134.031 51.7651C132.836 53.1389 131.641 54.4029 131.424 54.7326C130.827 55.3921 130.555 56.0515 130.61 56.3813L130.935 58.1398C131.044 57.8101 131.424 57.2056 131.804 56.766C132.076 56.4362 133.487 54.8425 134.845 53.3587C136.04 51.9849 137.18 50.7209 137.452 50.3912C138.049 49.7317 138.32 49.0723 138.266 48.7425L137.886 46.929C137.832 47.2587 137.452 47.8632 137.071 48.3029ZM104.056 74.1318C104.545 72.5381 105.414 71.1642 106.934 70.23C109.432 69.0209 110.409 72.0984 110.409 72.0984C110.246 74.1867 108.672 75.2858 106.988 75.2858C105.957 75.3408 104.925 74.9561 104.056 74.1318ZM122.627 24.2326C120.944 24.2875 119.586 25.7713 119.641 27.4749C119.695 29.2335 121.107 30.6074 122.79 30.5524C123.713 30.5524 124.528 30.0578 125.071 29.3983L125.125 29.3434C125.505 31.8713 124.311 33.9047 121.595 36.2128C118.772 38.6308 112.256 41.8182 107.586 45.6101C101.015 50.9407 99.4947 56.711 99.1146 61.4371C98.9516 63.5254 99.2231 66.2732 99.8205 68.5813C100.526 71.439 101.504 73.6372 101.504 73.6372C101.504 73.6372 101.558 73.7471 101.612 73.9119C101.45 77.0444 101.775 82.43 103.459 86.5516C105.739 91.8273 109.866 96.1687 115.785 94.9048C121.758 93.4759 122.41 83.5291 123.062 76.2201C123.224 75.011 123.442 74.7912 123.768 74.5164C124.745 73.6921 127.026 71.439 128.166 70.4498C128.872 69.8453 129.469 69.1858 129.849 68.4164C130.338 67.4272 130.066 66.1633 130.066 66.1633L129.415 61.3822C129.252 62.0416 128.437 63.0308 127.297 64.1849C126.102 65.3939 122.953 68.1966 122.681 68.5264C122.41 68.8011 121.378 69.5705 120.944 73.2525C119.803 83.1993 117.903 87.8705 114.482 89.4642C113.559 89.9039 112.581 90.1237 111.441 90.1237C105.196 90.0687 103.513 82.2102 103.567 77.9237C103.567 77.6489 103.567 77.4291 103.567 77.1543C105.033 79.1876 107.151 81.166 109.812 80.7264C114.048 80.0669 112.744 72.7029 112.093 70.9993C111.495 69.2957 109.866 64.1849 106.282 64.4597C103.784 64.6245 102.59 67.6471 102.047 70.23C101.558 68.1966 101.287 65.8335 101.45 63.9651C101.83 59.5137 103.296 53.9633 109.595 48.5227C114.048 44.6209 119.152 41.8731 121.976 39.565C123.767 38.1362 124.908 36.4875 125.505 34.9488C125.342 36.4326 124.962 38.0263 124.256 39.8948C121.65 46.929 113.722 58.5795 113.613 75.011C113.613 80.0669 114.102 84.4084 114.862 88.1453C115.296 87.8705 115.677 87.4309 116.057 86.9912C115.514 84.2985 115.188 81.3858 115.188 78.1984C115.188 61.7669 123.062 50.1714 125.614 43.1371C126.971 39.4551 126.971 36.7074 126.971 34.0695C126.971 30.7722 126.265 27.365 125.614 26.0461C124.908 24.7821 123.985 24.2326 122.681 24.2326H122.627ZM130.338 1.75594C128.763 2.91 127.46 5.49289 127.46 9.3947C127.46 11.8127 128.112 14.7253 129.958 17.9677C127.514 21.3749 127.08 24.5073 128.112 27.5299C128.872 29.838 129.306 30.3875 129.632 31.7614C130.555 35.2236 129.523 39.4002 126.863 45.8299C124.691 51.1056 121.867 56.5461 121.867 63.2507C121.867 64.7894 122.03 66.2732 122.193 67.757C122.464 67.4822 122.953 66.9876 123.659 66.3831C123.333 61.1624 125.342 55.8867 127.84 51.1605C131.478 44.2362 131.913 37.202 131.207 33.3551C133.759 36.1578 138.049 40.3344 140.547 44.6209C141.416 46.0497 141.904 47.4236 142.013 48.7975C142.121 52.2047 141.09 54.6227 139.081 56.9858C137.343 59.0191 137.94 60.7777 138.049 61.1074C138.157 61.657 138.863 63.8552 139.352 65.284C141.253 61.4921 146.52 59.2939 148.855 56.1615C149.398 60.0633 146.52 63.8002 144.402 66.2732C143.913 66.8227 143.316 67.4272 142.719 68.0318C138.7 71.9885 136.04 74.6813 134.628 77.2092C134.248 77.7588 133.705 79.0228 133.379 80.012C132.944 81.221 132.456 83.2543 132.021 86.8813C131.696 89.0246 131.315 91.5525 131.207 92.7066C130.935 95.2895 130.175 99.3561 127.08 100.565C126.917 100.62 126.754 100.675 126.591 100.73C123.659 101.389 120.618 98.8615 118.446 94.3003C118.012 94.63 117.523 94.9597 116.98 95.2345C119.966 102.434 124.419 105.731 128.329 105.731C131.315 105.731 133.65 104.192 134.356 99.7408C134.736 97.4877 135.008 95.0147 135.279 92.5417C135.388 91.3877 135.985 84.7931 137.017 82.375C138.266 79.6822 141.09 77.0993 145.271 72.7029C147.823 69.9552 149.235 67.702 149.995 65.8885C152.439 61.3272 149.398 50.5011 148.855 48.5777C148.855 48.5227 148.855 48.4678 148.801 48.4678C148.746 48.4678 148.746 48.4677 148.692 48.5777V48.6326C147.606 50.4461 145.705 52.0398 143.913 53.4137C144.891 50.611 144.619 48.4677 144.239 46.6542C144.239 46.5443 144.185 46.4344 144.185 46.3245C142.339 39.1254 135.171 32.6956 131.967 29.0137C127.786 24.2326 129.198 21.1551 130.772 19.2317C131.044 19.6713 131.37 20.1109 131.696 20.6055C137.397 28.574 148.149 41.1587 153.796 53.1389C155.208 56.1615 156.348 59.129 156.946 61.9867C159.172 74.4065 150.701 87.0462 138.049 83.5291C137.94 83.5291 137.886 83.4741 137.777 83.4741C137.452 84.5732 137.126 86.3318 136.8 88.7498C138.7 89.5741 140.818 90.0687 142.827 90.1786C142.99 90.1786 143.099 90.1786 143.262 90.1786C153.688 90.2886 161.833 82.2651 160.313 65.5038C160.313 65.5038 159.661 58.5245 156.186 51.1605C150.538 38.2461 140.112 25.4416 133.705 17.1983C131.696 14.5605 130.501 12.3073 129.904 10.3289C128.709 6.53703 129.469 3.56946 130.99 2.25054C131.315 1.97576 131.75 1.64603 132.13 1.42621C132.347 1.3163 132.293 1.04153 132.13 0.986572C132.076 0.986572 132.021 0.986572 131.967 0.986572C131.696 0.986572 131.261 1.09648 130.338 1.75594ZM118.663 29.6731C116.98 29.7281 115.622 31.2119 115.677 32.9704C115.731 34.729 117.143 36.1029 118.826 36.0479C120.509 35.9929 121.867 34.5092 121.813 32.8056C121.758 31.1019 120.401 29.7281 118.772 29.7281H118.663V29.6731Z" fill="#D89D12"/>
<path d="M113.559 121.833C113.559 122.437 113.45 122.932 113.233 123.317C113.016 123.701 112.69 124.031 112.31 124.306C111.93 124.581 111.441 124.745 110.898 124.855C110.355 124.965 109.758 125.02 109.106 125.02C108.672 125.02 108.237 124.965 107.803 124.91C107.368 124.855 106.934 124.69 106.554 124.526C106.174 124.306 105.848 124.086 105.631 123.701C105.359 123.372 105.251 122.932 105.251 122.437C105.251 121.448 105.468 120.624 105.848 119.854C106.228 119.085 106.825 118.426 107.586 117.876L106.934 117.601L107.857 116.117C108.726 116.282 109.54 116.557 110.246 116.942C110.952 117.272 111.55 117.711 112.038 118.206C112.527 118.7 112.907 119.25 113.179 119.854C113.45 120.459 113.559 121.118 113.559 121.833ZM105.522 114.249C105.522 113.809 105.685 113.425 106.011 113.095C106.337 112.765 106.717 112.6 107.151 112.6C107.368 112.6 107.586 112.655 107.749 112.71C107.911 112.765 108.129 112.93 108.237 113.04C108.4 113.205 108.509 113.37 108.563 113.535C108.617 113.754 108.672 113.919 108.672 114.139C108.672 114.579 108.509 114.963 108.237 115.238C107.911 115.568 107.586 115.678 107.151 115.678C106.934 115.678 106.717 115.623 106.554 115.568C106.337 115.513 106.174 115.403 106.065 115.238C105.902 115.073 105.794 114.908 105.739 114.744C105.576 114.689 105.522 114.469 105.522 114.249ZM111.007 121.778C111.007 121.613 111.007 121.393 110.952 121.118C110.898 120.844 110.789 120.514 110.681 120.239C110.572 119.909 110.355 119.635 110.138 119.415C109.921 119.14 109.649 118.975 109.269 118.865C109.052 118.975 108.835 119.14 108.672 119.415C108.509 119.635 108.346 119.854 108.183 120.129C108.074 120.349 107.966 120.624 107.857 120.844C107.803 121.118 107.749 121.283 107.749 121.448C107.749 121.668 107.803 121.888 107.857 122.053C107.966 122.217 108.074 122.382 108.183 122.492C108.292 122.602 108.454 122.657 108.617 122.712C108.78 122.767 108.943 122.767 109.106 122.767C109.649 122.767 110.083 122.657 110.464 122.492C110.844 122.382 111.007 122.108 111.007 121.778ZM109.269 114.249C109.269 113.809 109.432 113.425 109.758 113.095C110.083 112.765 110.464 112.6 110.898 112.6C111.115 112.6 111.332 112.655 111.495 112.71C111.658 112.765 111.875 112.93 111.984 113.04C112.147 113.205 112.256 113.37 112.31 113.535C112.364 113.754 112.418 113.919 112.418 114.139C112.418 114.579 112.256 114.963 111.984 115.238C111.658 115.568 111.332 115.678 110.898 115.678C110.681 115.678 110.464 115.623 110.301 115.568C110.083 115.513 109.921 115.403 109.812 115.238C109.649 115.073 109.54 114.908 109.486 114.744C109.323 114.689 109.269 114.469 109.269 114.249Z" fill="#222D66"/>
<path d="M118.283 116.612C118.446 117.601 118.609 118.59 118.663 119.634C118.772 120.624 118.826 121.558 118.826 122.437H120.835V124.855H118.88C118.88 125.075 118.826 125.295 118.772 125.624C118.717 125.899 118.609 126.229 118.5 126.559C118.392 126.888 118.174 127.163 117.957 127.493C117.74 127.823 117.414 128.097 116.98 128.317C116.6 128.537 116.111 128.757 115.514 128.922C114.916 129.087 114.265 129.142 113.45 129.142L113.016 127.603C113.667 127.603 114.21 127.493 114.699 127.273C114.916 127.163 115.134 127.053 115.296 126.888C115.514 126.724 115.677 126.559 115.839 126.339C116.002 126.119 116.111 125.844 116.22 125.515C116.328 125.185 116.382 124.855 116.382 124.415C116.382 123.316 116.382 122.162 116.274 120.953C116.22 119.744 116.057 118.59 115.731 117.436L118.283 116.612Z" fill="#222D66"/>
<path d="M127.026 122.382H120.401V124.8H127.026V122.382Z" fill="#222D66"/>
<path d="M133.542 116.557V124.855H126.591V122.437H130.718V117.436L133.542 116.557ZM126.971 128.042C126.971 127.603 127.134 127.218 127.46 126.888C127.786 126.559 128.166 126.394 128.6 126.394C128.818 126.394 129.035 126.449 129.198 126.504C129.361 126.559 129.578 126.724 129.686 126.833C129.849 126.998 129.958 127.163 130.012 127.328C130.066 127.548 130.121 127.713 130.121 127.933C130.121 128.372 129.958 128.757 129.686 129.032C129.361 129.361 129.035 129.471 128.6 129.471C128.383 129.471 128.166 129.416 128.003 129.361C127.786 129.306 127.623 129.197 127.514 129.032C127.351 128.867 127.243 128.702 127.189 128.537C127.026 128.482 126.971 128.262 126.971 128.042ZM130.718 128.042C130.718 127.603 130.881 127.218 131.207 126.888C131.533 126.559 131.913 126.394 132.347 126.394C132.564 126.394 132.782 126.449 132.944 126.504C133.107 126.614 133.325 126.724 133.433 126.833C133.596 126.998 133.705 127.163 133.759 127.328C133.813 127.548 133.868 127.713 133.868 127.933C133.868 128.372 133.705 128.757 133.433 129.032C133.107 129.361 132.782 129.471 132.347 129.471C132.13 129.471 131.913 129.416 131.75 129.361C131.533 129.306 131.37 129.197 131.261 129.032C131.098 128.867 130.99 128.702 130.935 128.537C130.772 128.482 130.718 128.262 130.718 128.042Z" fill="#222D66"/>
<path d="M138.918 116.612C139.081 117.601 139.243 118.59 139.298 119.635C139.406 120.624 139.461 121.558 139.461 122.437H141.47V124.855H139.461C139.461 125.075 139.406 125.295 139.352 125.625C139.298 125.899 139.189 126.229 139.081 126.559C138.972 126.889 138.755 127.163 138.538 127.493C138.32 127.823 137.995 128.098 137.56 128.317C137.18 128.537 136.691 128.757 136.094 128.922C135.497 129.087 134.845 129.142 134.031 129.142L133.596 127.603C134.248 127.603 134.791 127.493 135.279 127.273C135.497 127.163 135.714 127.054 135.877 126.889C136.094 126.724 136.257 126.559 136.42 126.339C136.583 126.119 136.691 125.845 136.8 125.515C136.908 125.185 136.963 124.855 136.963 124.416C136.963 123.317 136.909 122.163 136.854 120.954C136.8 119.744 136.637 118.59 136.311 117.436L138.918 116.612ZM135.768 114.249C135.768 113.809 135.931 113.425 136.257 113.095C136.583 112.765 136.963 112.6 137.397 112.6C137.614 112.6 137.832 112.655 137.995 112.71C138.157 112.82 138.375 112.93 138.483 113.04C138.646 113.205 138.755 113.37 138.809 113.535C138.863 113.754 138.918 113.919 138.918 114.139C138.918 114.579 138.755 114.963 138.483 115.238C138.157 115.568 137.832 115.678 137.397 115.678C137.18 115.678 136.963 115.623 136.8 115.568C136.583 115.513 136.42 115.403 136.311 115.238C136.148 115.073 136.04 114.908 135.985 114.744C135.822 114.689 135.768 114.469 135.768 114.249Z" fill="#222D66"/>
<path d="M153.579 124.855H141.035V122.437H148.855C148.529 121.778 148.258 121.283 148.04 120.843C147.823 120.404 147.606 120.074 147.443 119.799C147.28 119.524 147.063 119.36 146.9 119.25C146.737 119.14 146.52 119.085 146.303 119.085C145.977 119.085 145.705 119.14 145.488 119.305C145.271 119.469 144.999 119.744 144.674 120.129L143.099 118.7C143.316 118.425 143.533 118.151 143.805 117.876C144.076 117.601 144.402 117.381 144.728 117.216C145.054 117.051 145.434 116.887 145.76 116.777C146.14 116.667 146.466 116.612 146.846 116.612C147.226 116.612 147.606 116.722 147.986 116.887C148.312 117.051 148.692 117.326 149.018 117.766C149.344 118.151 149.724 118.7 150.104 119.305C150.484 119.964 150.973 120.733 151.461 121.613C151.624 121.888 151.841 122.107 152.059 122.272C152.276 122.382 152.547 122.492 152.819 122.492H153.579V124.855ZM145.597 127.933C145.597 127.493 145.76 127.108 146.085 126.779C146.411 126.449 146.791 126.284 147.226 126.284C147.443 126.284 147.66 126.339 147.823 126.394C147.986 126.504 148.203 126.614 148.312 126.724C148.475 126.888 148.583 127.053 148.638 127.218C148.692 127.438 148.746 127.603 148.746 127.823C148.746 128.262 148.583 128.647 148.312 128.922C147.986 129.251 147.66 129.361 147.226 129.361C147.009 129.361 146.791 129.306 146.628 129.251C146.411 129.197 146.248 129.087 146.14 128.922C145.977 128.757 145.868 128.592 145.814 128.427C145.597 128.372 145.597 128.152 145.597 127.933Z" fill="#222D66"/>
<path d="M158.303 112.105V124.8H153.036V122.382H155.48V112.93L158.303 112.105Z" fill="#222D66"/>
<path d="M163.245 112.105V124.8H160.421V112.93L163.245 112.105Z" fill="#222D66"/>
<path d="M170.304 122.547C170.413 122.602 170.576 122.657 170.738 122.712C170.847 122.767 171.01 122.767 171.227 122.822C171.39 122.822 171.607 122.877 171.824 122.877H175.951C175.951 122.657 175.897 122.328 175.843 121.943C175.788 121.558 175.626 121.118 175.408 120.734C175.191 120.294 174.865 119.855 174.431 119.47C173.997 119.03 173.454 118.646 172.693 118.371L173.182 116.337C173.997 116.557 174.757 116.942 175.463 117.491C175.734 117.711 176.06 117.986 176.332 118.316C176.603 118.646 176.875 119.03 177.146 119.47C177.418 119.909 177.635 120.404 177.798 121.009C177.961 121.558 178.123 122.218 178.232 122.932H180.133V124.965H171.607C171.39 124.965 171.173 124.965 171.01 124.91C170.847 124.91 170.684 124.855 170.521 124.8C170.358 124.746 170.195 124.691 170.087 124.636L170.304 122.547Z" fill="#222D66"/>
<path d="M190.993 122.822H192.785V124.855H190.993H179.59V122.822H181.599C181.327 122.657 181.219 122.382 181.164 122.107C181.11 121.778 181.11 121.448 181.11 121.063C181.11 120.788 181.164 120.459 181.273 120.129C181.382 119.799 181.49 119.524 181.653 119.195C181.816 118.92 182.033 118.645 182.25 118.48C182.468 118.26 182.739 118.151 183.065 118.096C182.685 118.096 182.413 118.041 182.142 117.931C181.87 117.821 181.707 117.711 181.544 117.546C181.382 117.381 181.273 117.161 181.164 116.887C181.056 116.612 181.001 116.337 180.947 116.007C181.87 116.282 183.445 116.557 185.617 116.722C186.594 116.832 187.463 117.051 188.115 117.326C188.767 117.601 189.364 117.986 189.744 118.425C190.178 118.92 190.45 119.469 190.667 120.184C190.83 120.898 190.939 121.723 190.939 122.712V122.822H190.993ZM184.803 121.503C184.803 120.898 184.694 120.404 184.477 120.019C184.26 119.634 184.042 119.469 183.716 119.469C183.554 119.469 183.445 119.524 183.336 119.634C183.228 119.744 183.173 119.854 183.065 120.019C183.011 120.184 182.956 120.349 182.902 120.514C182.848 120.679 182.848 120.843 182.848 121.008C182.848 121.173 182.848 121.338 182.902 121.558C182.902 121.778 182.956 121.942 183.065 122.162C183.119 122.327 183.228 122.492 183.391 122.657C183.554 122.767 183.771 122.877 183.988 122.877C184.26 122.877 184.422 122.767 184.585 122.492C184.748 122.217 184.803 121.888 184.803 121.503ZM188.658 122.822C188.658 122.217 188.604 121.668 188.495 121.173C188.386 120.679 188.278 120.239 188.061 119.909C187.843 119.524 187.572 119.25 187.138 119.03C186.757 118.81 186.269 118.645 185.617 118.59C185.943 118.865 186.214 119.195 186.377 119.689C186.54 120.184 186.649 120.678 186.649 121.283C186.649 121.558 186.594 121.888 186.54 122.162C186.486 122.437 186.377 122.657 186.377 122.822H188.658Z" fill="#222D66"/>
<path d="M199.681 124.855C199.301 124.855 198.975 124.8 198.65 124.635C198.378 124.525 198.107 124.251 197.889 123.866C197.672 124.251 197.455 124.471 197.183 124.635C196.912 124.745 196.586 124.855 196.152 124.855H192.188V122.822H195.554L193.056 119.634C193.708 118.645 194.414 117.931 195.229 117.491C196.043 117.052 196.912 116.832 197.889 116.832C198.867 116.832 199.736 117.052 200.55 117.491C201.365 117.931 202.071 118.645 202.722 119.634L200.224 122.822H203.754V124.855H199.681ZM200.441 119.634C200.333 119.47 200.116 119.36 199.953 119.195C199.736 119.085 199.573 118.975 199.301 118.865C199.084 118.755 198.867 118.7 198.595 118.645C198.378 118.59 198.161 118.59 197.944 118.59C197.726 118.59 197.509 118.59 197.292 118.645C197.075 118.7 196.803 118.755 196.586 118.865C196.369 118.92 196.152 119.03 195.989 119.195C195.826 119.305 195.663 119.47 195.554 119.58L197.998 122.767L200.441 119.634Z" fill="#222D66"/>
<path d="M212.334 123.207C212.334 123.536 212.171 123.921 211.899 124.416C211.41 125.405 210.922 125.954 210.487 125.954C210.324 125.954 210.162 125.899 209.999 125.844C209.618 125.68 209.13 125.46 208.478 125.185C207.827 124.855 207.066 124.471 206.197 124.031C205.98 124.416 205.763 124.635 205.492 124.745C205.274 124.8 204.949 124.855 204.46 124.855H203.265V122.822H204.623C205.003 121.943 205.383 121.173 205.763 120.514C206.143 119.799 206.578 119.25 206.958 118.755C207.338 118.261 207.718 117.876 208.098 117.601C208.478 117.326 208.804 117.217 209.13 117.217C209.944 117.217 210.596 117.821 211.139 118.975C211.302 119.305 211.465 119.744 211.628 120.294C211.791 120.844 211.953 121.448 212.116 122.217C212.334 122.602 212.388 122.987 212.334 123.207ZM210.324 123.536C210.162 122.437 209.999 121.503 209.727 120.844C209.51 120.184 209.184 119.799 208.858 119.799C208.75 119.799 208.532 119.964 208.207 120.239C208.044 120.404 207.827 120.679 207.609 121.008C207.392 121.338 207.229 121.613 207.121 121.888C207.609 122.272 208.152 122.602 208.695 122.877C209.238 123.152 209.781 123.372 210.324 123.536Z" fill="#222D66"/>
<path d="M50.0802 121.393C50.7318 120.019 51.3835 118.975 51.9808 118.261C52.5781 117.546 53.1754 117.162 53.7184 117.162C54.5329 117.162 55.1846 117.766 55.7276 118.92C55.8905 119.25 56.0534 119.69 56.2163 120.239C56.3792 120.789 56.5421 121.393 56.705 122.108C56.8136 122.602 56.8679 122.987 56.8136 123.207C56.8136 123.536 56.6507 123.921 56.3792 124.416C55.8905 125.405 55.4561 125.899 55.0217 125.899C54.8588 125.899 54.6959 125.845 54.5329 125.79C54.3157 125.68 54.0985 125.57 53.827 125.405C53.5555 125.24 53.2297 125.075 52.9039 124.855C52.5781 124.636 52.198 124.471 51.7636 124.251C51.3835 124.031 50.949 123.811 50.4603 123.646C50.2431 123.536 50.0259 123.536 49.863 123.591C49.7001 123.646 49.5372 123.701 49.4286 123.811C49.32 123.921 49.2114 124.086 49.1571 124.251C49.1028 124.416 49.0485 124.581 49.0485 124.745V129.032H47.2022V123.481C47.2022 123.097 47.3108 122.767 47.4737 122.437C47.6366 122.163 47.8538 121.888 48.1254 121.723C48.3969 121.558 48.7227 121.393 49.0485 121.338C49.3743 121.338 49.7544 121.338 50.0802 121.393ZM54.7502 123.536C54.5873 122.437 54.4243 121.558 54.1528 120.844C53.9356 120.184 53.6098 119.799 53.284 119.799C53.1754 119.799 52.9582 119.964 52.6324 120.239C52.4695 120.404 52.2523 120.679 52.0351 121.008C51.8179 121.338 51.655 121.613 51.5464 121.888C52.3066 122.217 52.9039 122.492 53.4469 122.767C53.9899 123.097 54.4243 123.317 54.7502 123.536Z" fill="#222D66"/>
<path d="M59.4743 115.458C59.5829 115.403 59.7458 115.348 59.963 115.238C60.1802 115.128 60.3974 115.073 60.6147 114.963C60.8862 114.853 61.1577 114.743 61.4292 114.634C61.8093 115.128 62.1351 115.733 62.5152 116.447C62.841 117.216 63.1668 117.931 63.4383 118.755C63.7099 119.525 63.9814 120.294 64.1986 121.008C64.4158 121.723 64.5787 122.327 64.6873 122.767C64.9588 122.712 65.176 122.657 65.3389 122.547C65.5018 122.437 65.6104 122.272 65.719 122.107C65.8276 121.943 65.8819 121.778 65.8819 121.558C65.9362 121.338 65.9362 121.173 65.9362 120.953V112.985L68.2712 112.271V121.063V121.668C68.2712 122.053 68.3798 122.327 68.597 122.492C68.8142 122.657 69.0857 122.767 69.4115 122.767H70.8777V124.8H70.0088C69.4115 124.8 68.9228 124.69 68.5427 124.471C68.1083 124.251 67.8368 123.976 67.6196 123.591C67.3481 123.921 66.968 124.251 66.4249 124.471C65.9362 124.69 65.2303 124.8 64.4158 124.8H58.0082L58.6598 122.767H62.4609C62.3523 122.327 62.2437 121.833 62.0808 121.283C61.9179 120.734 61.7007 120.129 61.4835 119.47C61.2663 118.81 60.9405 118.151 60.6147 117.491C60.2888 116.832 59.9087 116.117 59.4743 115.458Z" fill="#222D66"/>
<path d="M70.2804 122.822H73.2127C72.9955 122.492 72.8326 122.107 72.724 121.668C72.6697 121.228 72.6154 120.734 72.6154 120.184C72.6154 119.195 72.9955 118.425 73.81 117.821C74.6245 117.216 75.7105 116.942 77.1224 116.887C77.6111 116.887 78.2084 116.887 78.86 116.997C79.5117 117.107 80.109 117.162 80.7063 117.271V119.36C80.5434 119.305 80.2719 119.25 80.0004 119.195C79.7289 119.14 79.4031 119.085 79.1316 119.03C78.8057 118.975 78.4799 118.92 78.1541 118.92C77.8283 118.865 77.4482 118.865 77.1224 118.865C76.8509 118.865 76.6337 118.865 76.3622 118.92C76.145 118.975 75.9278 119.03 75.7649 119.14C75.6019 119.25 75.439 119.415 75.3304 119.58C75.2218 119.799 75.1675 120.019 75.1675 120.349C75.1675 121.008 75.2218 121.558 75.3847 121.943C75.4933 122.327 75.6562 122.657 75.8735 122.877H80.7606V124.91H70.3347V122.822H70.2804Z" fill="#222D66"/>
<path d="M83.2585 115.458C83.3671 115.403 83.53 115.348 83.7472 115.238C83.9644 115.128 84.1816 115.073 84.3988 114.963C84.6703 114.853 84.9418 114.743 85.2133 114.634C85.5935 115.128 85.9193 115.733 86.2994 116.447C86.6795 117.162 86.951 117.931 87.2225 118.755C87.494 119.525 87.7655 120.294 87.9827 121.008C88.1999 121.723 88.3628 122.327 88.4714 122.767C88.743 122.712 88.9602 122.657 89.1231 122.547C89.286 122.437 89.3946 122.272 89.5032 122.107C89.6118 121.943 89.6661 121.778 89.6661 121.558C89.7204 121.338 89.7204 121.173 89.7204 120.953V112.985L92.0554 112.271V121.063V121.668C92.0554 122.053 92.164 122.327 92.3812 122.492C92.5984 122.657 92.8699 122.767 93.1957 122.767H94.6618V124.8H93.8473C93.25 124.8 92.7613 124.69 92.3812 124.471C91.9468 124.251 91.6752 123.976 91.458 123.591C91.1865 123.921 90.8064 124.251 90.2634 124.471C89.7747 124.69 89.0688 124.8 88.2542 124.8H81.8466L82.4983 122.767H86.2994C86.1908 122.327 86.0822 121.833 85.9193 121.283C85.7564 120.734 85.5392 120.129 85.322 119.47C85.1047 118.81 84.7789 118.151 84.4531 117.491C84.073 116.832 83.6929 116.117 83.2585 115.458ZM88.1456 130.131L83.8015 131.45V130.296L84.9961 129.911C84.8875 129.911 84.7246 129.801 84.616 129.746C84.5074 129.636 84.3988 129.526 84.3445 129.416C84.2902 129.307 84.2359 129.142 84.1816 128.977C84.1273 128.812 84.1273 128.702 84.1273 128.592C84.1273 128.207 84.2359 127.878 84.3988 127.548C84.5617 127.273 84.7789 126.998 85.0504 126.779C85.322 126.559 85.5935 126.394 85.9193 126.284C86.2451 126.174 86.5166 126.119 86.7881 126.119C87.0596 126.119 87.3311 126.174 87.6026 126.284C87.8741 126.394 88.0913 126.559 88.3628 126.889C88.2542 126.998 88.0913 127.108 87.9284 127.273C87.7655 127.438 87.5483 127.603 87.2768 127.823C87.0596 127.603 86.7881 127.493 86.4623 127.493C86.1365 127.493 85.9193 127.603 85.8107 127.768C85.7021 127.933 85.5935 128.098 85.5935 128.262C85.5935 128.427 85.6478 128.592 85.7564 128.702C85.865 128.812 85.9736 128.977 86.0822 129.032C86.1908 129.142 86.3537 129.197 86.5166 129.252C86.6795 129.307 86.7881 129.362 86.8967 129.362L88.2542 128.977V130.131H88.1456Z" fill="#222D66"/>
<path d="M94.0645 122.822H96.5081V112.985L98.7887 112.325V124.855H94.0645V122.822Z" fill="#222D66"/>
</g>
<defs>
<clipPath id="clip0_181_422">
<rect width="258.53" height="150.742" fill="white" transform="translate(0.502777 0.986572)"/>
</clipPath>
</defs>
</svg>
