<svg width="42" height="55" viewBox="0 0 42 55" fill="none" xmlns="http://www.w3.org/2000/svg">
<g clip-path="url(#clip0_190_1597)">
<path d="M5.869 47.5247H6.52735C7.32576 47.5247 7.50786 48.0748 7.5919 48.4839C7.5919 48.5263 7.75999 48.5263 7.75999 48.4839C7.71797 47.7504 7.74598 47.3977 7.46584 47.3977H3.59982C3.31967 47.3977 3.34769 47.7504 3.30566 48.4839C3.30566 48.5404 3.47375 48.5263 3.47375 48.5263C3.5578 48.0889 3.73989 47.5247 4.53831 47.5247H5.19665V52.0953C5.19665 52.5044 5.19665 52.448 4.67838 52.6032C4.65037 52.6032 4.65037 52.7302 4.67838 52.7302C4.79044 52.7302 5.37875 52.7019 5.53283 52.7019C5.68691 52.7019 6.26121 52.716 6.37327 52.7302C6.40128 52.7302 6.40128 52.6173 6.37327 52.6032C5.84099 52.4621 5.85499 52.4903 5.85499 52.0953V47.5247H5.869Z" fill="url(#paint0_linear_190_1597)"/>
<path d="M12.0743 52.589C11.7101 52.4902 11.6821 52.5185 11.584 52.2645L9.76307 47.2424L7.83007 52.2222C7.73202 52.4761 7.64797 52.4902 7.19974 52.6031C7.18573 52.6031 7.18573 52.6313 7.18573 52.6595C7.18573 52.6877 7.19974 52.7301 7.21374 52.7301C7.38183 52.716 7.56393 52.7018 7.73202 52.7018C7.95613 52.7018 8.18025 52.716 8.39036 52.7301C8.40437 52.7301 8.41837 52.7018 8.41837 52.6595C8.41837 52.6313 8.41837 52.6031 8.40437 52.6031C8.0822 52.5043 7.94212 52.5185 7.94212 52.3915C7.94212 52.3633 7.95613 52.3068 7.98415 52.2504L8.51642 50.882H10.3654L10.8136 52.0952C10.8556 52.2081 10.8837 52.2927 10.8837 52.3351C10.8837 52.4902 10.7016 52.5044 10.3794 52.589C10.3654 52.589 10.3654 52.6172 10.3654 52.6313C10.3654 52.6736 10.3794 52.716 10.3934 52.716C10.5055 52.716 11.0237 52.6877 11.2759 52.6877C11.542 52.6877 11.9342 52.6877 12.0743 52.7018C12.0883 52.7018 12.1163 52.6595 12.1163 52.6313C12.0883 52.6172 12.0883 52.589 12.0743 52.589ZM8.55845 50.741L9.45491 48.4274L10.2954 50.741H8.55845Z" fill="url(#paint1_linear_190_1597)"/>
<path d="M18.0974 47.8208L17.6352 48.6672L15.6601 52.4197C15.5621 52.6172 15.352 52.6313 15.2539 52.4056L13.2509 48.2581V52.0952C13.2509 52.4902 13.2369 52.4479 13.7691 52.6031C13.7972 52.6031 13.7972 52.73 13.7691 52.73C13.6571 52.73 13.3349 52.7018 13.1808 52.7018C13.0127 52.7018 12.7046 52.7159 12.5785 52.73C12.5505 52.73 12.5505 52.6172 12.5785 52.6031C13.0968 52.4479 13.0968 52.5043 13.0968 52.0952V47.9901C13.0828 47.5951 13.0127 47.6374 12.4244 47.4963C12.4104 47.4963 12.4244 47.3694 12.4385 47.3694C12.5785 47.3835 13.1248 47.3976 13.3909 47.3976C13.587 47.3976 13.587 47.3976 13.6571 47.5387L15.6181 51.6156C15.7442 51.8695 15.7582 51.8836 15.8983 51.6156L17.8873 47.8349C17.9573 47.6938 18.0134 47.5951 18.0554 47.5387C18.0694 47.5105 18.1254 47.5246 18.1254 47.5528V47.6938C18.1394 47.7221 18.1254 47.7644 18.0974 47.8208Z" fill="url(#paint2_linear_190_1597)"/>
<path d="M19.442 52.7159C19.316 52.7159 18.7557 52.6877 18.6016 52.6877C18.4475 52.6877 17.8732 52.7018 17.7471 52.7159C17.7191 52.7159 17.7191 52.589 17.7471 52.589C18.2654 52.4338 18.2654 52.4902 18.2654 52.0811V47.454C18.2654 47.4117 18.2934 47.3835 18.3355 47.3835C18.3495 47.3835 18.3495 47.3835 18.3495 47.3835C18.4055 47.3835 18.4895 47.3835 18.5736 47.3835H18.5876C18.6436 47.3835 18.7697 47.3835 18.8957 47.3835H18.9098C19.1199 47.3835 19.358 47.3694 19.428 47.3694C19.456 47.3694 19.456 47.4822 19.428 47.4963C18.9098 47.6374 18.9098 47.5951 18.9098 48.0042V52.0952C18.9098 52.4902 18.8957 52.4479 19.428 52.6031C19.47 52.6031 19.47 52.7159 19.442 52.7159Z" fill="url(#paint3_linear_190_1597)"/>
<path d="M26.5998 51.7286C26.3757 52.1377 26.1936 52.5609 25.1991 52.5609H23.9945V50.0499H25.2551C25.6473 50.0499 25.6053 50.0499 25.7594 50.5859C25.7594 50.6 25.7874 50.6 25.8154 50.6C25.8434 50.6 25.8855 50.6 25.8855 50.5718C25.8855 50.459 25.8575 50.1345 25.8575 49.9652C25.8575 49.81 25.8715 49.4997 25.8855 49.3727C25.8855 49.3586 25.8575 49.3445 25.8154 49.3445C25.7874 49.3445 25.7594 49.3445 25.7594 49.3586C25.6193 49.9088 25.6473 49.8947 25.2551 49.8947H23.9945V47.4965H24.947C25.9415 47.4965 26.1376 47.9197 26.3337 48.3288C26.3477 48.357 26.4458 48.3006 26.4458 48.2583C26.3337 47.5247 26.3617 47.3695 26.0816 47.3695H23.6723C23.5182 47.3695 22.9439 47.3554 22.8179 47.3413C22.8039 47.3413 22.7899 47.3695 22.7899 47.4118C22.7899 47.4401 22.7899 47.4683 22.8039 47.4683C23.3081 47.6093 23.3221 47.5529 23.3221 47.9761V52.0672C23.3221 52.4763 23.3221 52.4198 22.8039 52.575C22.7899 52.575 22.7899 52.6032 22.7899 52.6314C22.7899 52.6597 22.7899 52.702 22.8179 52.702C22.9299 52.702 23.5182 52.6738 23.6723 52.6738H26.3337C26.6139 52.6738 26.5858 52.5186 26.6979 51.785C26.6979 51.785 26.6279 51.7286 26.5998 51.7286Z" fill="url(#paint4_linear_190_1597)"/>
<path d="M31.0261 51.7286C30.802 52.1377 30.6199 52.5609 29.6254 52.5609H28.4347V50.0499H29.6954C30.0876 50.0499 30.0456 50.0499 30.1997 50.5859C30.1997 50.6 30.2277 50.6 30.2557 50.6C30.2837 50.6 30.3257 50.6 30.3257 50.5718C30.3257 50.459 30.2977 50.1345 30.2977 49.9652C30.2977 49.81 30.3117 49.4997 30.3257 49.3727C30.3257 49.3586 30.2977 49.3445 30.2557 49.3445C30.2277 49.3445 30.1997 49.3445 30.1997 49.3586C30.0596 49.9088 30.0876 49.8947 29.6954 49.8947H28.4347V47.4965H29.3872C30.3817 47.4965 30.5778 47.9197 30.774 48.3288C30.788 48.357 30.886 48.3006 30.886 48.2583C30.774 47.5247 30.802 47.3695 30.5218 47.3695H28.1126C27.9585 47.3695 27.3842 47.3554 27.2581 47.3413C27.2441 47.3413 27.2301 47.3695 27.2301 47.4118C27.2301 47.4401 27.2301 47.4683 27.2441 47.4683C27.7484 47.6093 27.7624 47.5529 27.7624 47.9761V52.0672C27.7624 52.4763 27.7624 52.4198 27.2441 52.575C27.2301 52.575 27.2301 52.6032 27.2301 52.6314C27.2301 52.6597 27.2301 52.702 27.2581 52.702C27.3702 52.702 27.9585 52.6738 28.1126 52.6738H30.774C31.0541 52.6738 31.0261 52.5186 31.1381 51.785C31.1241 51.785 31.0541 51.7286 31.0261 51.7286Z" fill="url(#paint5_linear_190_1597)"/>
<path d="M36.461 47.3694C36.3489 47.3694 36.0268 47.3976 35.8727 47.3976C35.7046 47.3976 35.3965 47.3835 35.2704 47.3694C35.2424 47.3694 35.2424 47.4822 35.2704 47.4963C35.7747 47.6374 35.7887 47.581 35.7887 48.0042V51.6015L32.8751 47.5387C32.7631 47.3976 32.7491 47.3976 32.511 47.3976C32.3008 47.3976 31.7546 47.3835 31.6145 47.3694C31.5865 47.3694 31.5725 47.4963 31.6005 47.4963C32.1888 47.6374 32.2588 47.6092 32.2588 47.9901V52.0952C32.2588 52.5043 32.2588 52.4479 31.7405 52.6031C31.7125 52.6031 31.7125 52.7301 31.7405 52.7301C31.8526 52.7301 32.1748 52.7018 32.3429 52.7018C32.4969 52.7018 32.8051 52.7159 32.9312 52.7301C32.9592 52.7301 32.9592 52.6172 32.9312 52.6031C32.3989 52.462 32.4129 52.4902 32.4129 52.0952V48.0606L35.8027 52.7865C35.8307 52.8288 35.9287 52.8711 35.9287 52.6595V47.9901C35.9287 47.581 35.9287 47.6374 36.447 47.4822C36.489 47.4822 36.489 47.3694 36.461 47.3694Z" fill="url(#paint6_linear_190_1597)"/>
<path d="M24.6248 53.915C23.9945 53.8727 23.3921 53.5905 22.8739 53.2237C21.5292 52.2786 20.5907 50.9243 19.4141 49.7816L19.5822 49.6123L21.179 47.8631C21.3891 47.6374 21.5012 47.595 21.9494 47.4822C21.9774 47.4822 21.9774 47.3552 21.9354 47.3552C21.7673 47.3693 21.5152 47.3834 21.3471 47.3834C21.123 47.3834 20.9129 47.3693 20.6887 47.3552C20.6467 47.3552 20.6467 47.4681 20.6747 47.4822C21.0949 47.595 21.221 47.5809 20.9969 47.8349L19.0779 49.9368C19.0499 49.9509 19.0499 50.0497 19.0779 50.0638L19.1199 50.1061C19.9604 51.0372 20.7308 51.94 21.6272 52.8005C22.3416 53.4918 23.154 54.1971 24.1766 54.3241C25.101 54.4511 25.9835 53.9996 26.4317 53.1955C25.9975 53.7457 25.3252 53.9714 24.6248 53.915Z" fill="url(#paint7_linear_190_1597)"/>
<path d="M41.3496 32.4866C41.1255 31.4991 40.7193 30.6103 40.0469 29.8627C38.2119 27.8454 35.9428 27.3093 33.3514 27.9159C32.0207 28.2263 30.9141 28.9457 29.9336 29.8909C29.5975 30.2153 29.3033 30.5539 28.9951 30.8925C28.9111 30.963 28.8411 31.0477 28.757 31.1323C28.0987 31.8377 27.3423 32.9662 27.0901 33.5869C26.9501 33.9255 27.0341 34.1089 27.3563 34.25C27.8185 34.4474 28.2107 34.7578 28.5609 35.1246C28.6169 35.181 28.659 35.2374 28.701 35.2939C28.813 35.4349 28.8691 35.6183 28.827 35.8017C28.785 36.0839 28.715 36.3519 28.645 36.6199C28.3928 37.4664 27.9026 38.1576 27.1742 38.6372C25.5633 39.6953 23.8124 39.9915 21.9355 39.5683C21.5292 39.4695 21.137 39.3426 20.7728 39.1733C21.137 38.9476 21.5012 38.7078 21.8374 38.4256C22.4117 37.9601 22.916 37.4099 23.4482 36.9021C24.0365 36.3378 24.4007 35.6607 24.5968 34.8848C24.7929 34.0807 24.807 33.2766 24.7789 32.4584C24.7369 31.3439 24.5968 30.2436 24.5828 29.1291C24.5688 28.5225 24.6809 27.9582 24.947 27.4222C25.9696 26.872 26.9921 26.3218 28.0286 25.7716C28.6029 25.4613 29.7936 24.5725 30.4099 24.0365C32.9872 21.8499 34.6401 19.0426 35.5225 15.798C36.9373 10.5643 35.1443 5.14719 31.1663 2.50917C27.0901 -0.185265 21.8794 0.0545544 17.8593 3.31327C15.0299 5.59861 13.0548 8.46233 13.2929 12.3418C13.5031 15.6992 15.7302 18.8028 19.3721 17.5473C19.9604 17.3498 20.0725 17.7024 20.1565 18.1539C20.4787 19.7338 20.5627 21.2997 19.4281 22.8092C21.9495 21.864 23.056 20.2558 22.8879 17.8999C22.8039 16.7149 22.5518 15.5441 22.6638 14.345C22.7619 13.2869 22.944 12.243 23.8965 11.5659C25.6754 10.3104 27.6084 10.0564 29.5694 10.9452C31.3904 11.7634 32.2588 13.301 32.2028 15.3324C32.2028 15.403 32.3709 15.4876 32.4689 15.5864C33.0152 13.5832 31.6985 11.1991 29.5975 10.3386C25.9976 8.85733 21.3612 11.2132 20.2546 15.0785C19.6102 17.3356 17.5232 18.0128 15.6602 16.5033C14.4556 15.5299 13.9793 14.1334 13.8813 12.638C13.5871 8.27894 16.3465 4.08916 20.7588 2.12829C25.4933 0.0122335 31.2503 1.77561 33.7716 6.10646C36.7272 11.185 35.6346 16.6726 30.9982 20.1994C29.8356 21.074 28.645 21.9204 27.3703 22.6117C25.2972 23.7261 23.1821 24.8124 21.151 25.9974C18.7418 27.4081 18.4336 30.2012 20.5067 32.3173C20.4787 31.0336 20.6048 29.8345 21.7113 29.1996C22.1456 28.9457 22.5938 28.7059 23.028 28.452C22.6778 28.8611 22.4397 29.3407 22.3137 29.8909C22.2016 30.427 22.2156 30.963 22.2576 31.4991C22.3137 32.4301 22.4117 33.3471 22.4537 34.2782C22.4957 35.1669 22.4257 36.0415 22.1736 36.9021C21.9495 37.6921 21.4872 38.3269 20.8149 38.7642C19.3161 39.7376 17.6912 40.0197 15.9543 39.6247C15.254 39.4695 14.6096 39.1874 14.0493 38.8206C14.2314 38.6937 14.3995 38.5667 14.5816 38.4256C15.1559 37.9601 15.6602 37.4099 16.1925 36.9021C16.7808 36.3378 17.145 35.6607 17.3411 34.8848C17.5372 34.0807 17.5512 33.2766 17.5232 32.4584C17.4811 31.3439 17.3411 30.2436 17.327 29.1291C17.313 28.4096 17.4671 27.7325 17.8593 27.1259C17.9994 26.9002 18.1815 26.7027 18.3496 26.5052C17.5792 27.0554 16.7387 27.535 16.0384 28.1839C15.5201 28.6636 15.1839 29.242 15.0299 29.9332C14.9178 30.4693 14.9318 31.0053 14.9738 31.5414C15.0299 32.4725 15.1279 33.3894 15.1699 34.3205C15.2119 35.2092 15.1419 36.0839 14.8898 36.9444C14.6657 37.7344 14.2034 38.3692 13.5311 38.8065C12.0323 39.7799 10.4074 40.062 8.67053 39.667C8.6145 39.6529 8.57248 39.6388 8.51645 39.6247C9.20281 39.3426 9.84715 38.9335 10.4495 38.4397C11.0238 37.9742 11.528 37.424 12.0603 36.9162C12.6486 36.3519 13.0128 35.6748 13.2089 34.8989C13.405 34.0948 13.419 33.2907 13.391 32.4725C13.349 31.358 13.2089 30.2577 13.1949 29.1432C13.1809 28.4238 13.335 27.7466 13.7272 27.14C13.8672 26.9143 14.0493 26.7168 14.2174 26.5193C13.447 27.0695 12.6066 27.5491 11.9062 28.198C11.388 28.6777 11.0518 29.2561 10.8977 29.9473C10.7856 30.4834 10.7996 31.0194 10.8417 31.5555C10.8977 32.4866 10.9957 33.4035 11.0378 34.3346C11.0798 35.2233 11.0098 36.098 10.7576 36.9585C10.5335 37.7485 10.0713 38.3833 9.39891 38.8206C7.90013 39.794 6.27528 40.0761 4.53838 39.6812C3.12364 39.3567 1.97504 38.609 1.14861 37.3958C0.448241 36.366 0.168095 35.2233 0.19611 33.9819C0.224125 33.0226 0.448242 32.1057 0.952505 31.2875C2.15713 29.3689 3.89404 28.4238 6.14922 28.4238C7.08771 28.4238 7.94215 28.6918 8.74057 29.1714C8.92266 29.2702 9.11877 29.3689 9.14678 29.6087C9.16079 29.6652 9.20281 29.7075 9.27285 29.7075C9.32888 29.7075 9.3709 29.6793 9.39891 29.6229C9.42693 29.5664 9.39891 29.51 9.35689 29.4677C9.34288 29.4536 9.31487 29.4254 9.28685 29.4112C8.97869 29.1996 8.67053 28.988 8.33436 28.8329C6.68149 28.057 5.02863 28.1134 3.38978 28.8752C2.01706 29.51 1.00853 30.5398 0.420227 31.9505C-0.0139996 32.9944 -0.0980435 34.0666 0.0560369 35.181C0.19611 36.1121 0.504271 36.9726 1.07857 37.7062C2.61937 39.6953 4.69246 40.3724 7.12973 40.0056C7.4519 39.9492 7.77406 39.8787 8.08222 39.7799C9.04873 40.1044 10.1133 40.1608 11.2619 39.9915C12.2144 39.8504 13.0548 39.4837 13.8392 38.9617C15.1699 39.9351 16.7668 40.2313 18.5597 39.9492C19.2601 39.8504 19.8904 39.6106 20.4927 39.3003C21.7534 39.9351 23.1821 40.1185 24.7509 39.8787C26.0956 39.667 27.2582 39.0463 28.3088 38.1858C28.5049 38.0165 28.701 37.8472 28.8971 37.6638C29.2893 37.2971 29.6535 36.9162 30.0457 36.5353C30.2698 36.3237 30.4659 36.0839 30.634 35.8299C30.7881 35.6042 30.9001 35.3785 30.9982 35.1246C31.0402 35.0258 31.0822 34.9271 31.1242 34.8283C31.3484 34.2076 31.3904 33.5869 30.9001 32.9521C30.62 32.5853 30.2978 32.275 29.9616 31.9928C29.7795 31.8377 29.6955 31.5837 29.7515 31.3439C29.7936 31.1746 29.8356 30.9912 29.8636 30.9066C30.0877 30.2859 30.4659 29.7498 31.0122 29.3266C32.539 28.1557 34.2619 27.7043 36.1669 27.9723C37.7217 28.198 39.0244 28.9034 40.0049 30.1307C40.9014 31.2593 41.2936 32.5712 41.3216 34.0242C41.3356 35.0541 41.0835 36.0698 40.5792 36.9585C39.3185 39.1733 37.3015 40.2454 34.5841 40.2313C33.7436 40.2313 32.8892 39.9774 32.2308 39.4554C32.1468 39.3849 32.0908 39.3144 32.0627 39.1874C32.0487 39.131 31.9927 39.0887 31.9227 39.0887C31.8666 39.0887 31.8246 39.131 31.7966 39.1874C31.7686 39.2579 31.8106 39.3003 31.8526 39.3567C31.8806 39.3708 31.8946 39.399 31.9227 39.4131C32.2728 39.6247 32.623 39.8081 33.0012 39.9492C34.8362 40.6404 36.6151 40.4429 38.31 39.4837C39.7247 38.6796 40.7193 37.4946 41.2375 35.9287C41.6157 34.8283 41.6157 33.6575 41.3496 32.4866Z" fill="url(#paint8_linear_190_1597)"/>
<path d="M36.1249 33.9678L37.4696 32.6135L38.8143 33.9678L37.4696 35.3221L36.1249 33.9678Z" fill="url(#paint9_linear_190_1597)"/>
<path d="M33.4354 33.9678L34.7801 32.6135L36.1248 33.9678L34.7801 35.3221L33.4354 33.9678Z" fill="url(#paint10_linear_190_1597)"/>
<path d="M13.0828 43.9839L14.4275 42.6296L15.7722 43.9839L14.4275 45.3382L13.0828 43.9839Z" fill="url(#paint11_linear_190_1597)"/>
<path d="M10.3934 43.9839L11.7381 42.6296L13.0828 43.9839L11.7381 45.3382L10.3934 43.9839Z" fill="url(#paint12_linear_190_1597)"/>
<path d="M4.6925 33.9678L6.03721 32.6135L7.39591 33.9678L6.03721 35.3221L4.6925 33.9678Z" fill="url(#paint13_linear_190_1597)"/>
</g>
<defs>
<linearGradient id="paint0_linear_190_1597" x1="5.33989" y1="49.4572" x2="35.0223" y2="5.57575" gradientUnits="userSpaceOnUse">
<stop stop-color="#FFC487"/>
<stop offset="0.9839" stop-color="#F2588F"/>
</linearGradient>
<linearGradient id="paint1_linear_190_1597" x1="9.41544" y1="52.2139" x2="39.0979" y2="8.33241" gradientUnits="userSpaceOnUse">
<stop stop-color="#FFC487"/>
<stop offset="0.9839" stop-color="#F2588F"/>
</linearGradient>
<linearGradient id="paint2_linear_190_1597" x1="11.5441" y1="53.6538" x2="41.2266" y2="9.77232" gradientUnits="userSpaceOnUse">
<stop stop-color="#FFC487"/>
<stop offset="0.9839" stop-color="#F2588F"/>
</linearGradient>
<linearGradient id="paint3_linear_190_1597" x1="14.9377" y1="55.9494" x2="44.6201" y2="12.0679" gradientUnits="userSpaceOnUse">
<stop stop-color="#FFC487"/>
<stop offset="0.9839" stop-color="#F2588F"/>
</linearGradient>
<linearGradient id="paint4_linear_190_1597" x1="18.9066" y1="58.6341" x2="48.589" y2="14.7526" gradientUnits="userSpaceOnUse">
<stop stop-color="#FFC487"/>
<stop offset="0.9839" stop-color="#F2588F"/>
</linearGradient>
<linearGradient id="paint5_linear_190_1597" x1="21.9587" y1="60.6987" x2="51.6411" y2="16.8172" gradientUnits="userSpaceOnUse">
<stop stop-color="#FFC487"/>
<stop offset="0.9839" stop-color="#F2588F"/>
</linearGradient>
<linearGradient id="paint6_linear_190_1597" x1="25.2162" y1="62.9018" x2="54.8986" y2="19.0204" gradientUnits="userSpaceOnUse">
<stop stop-color="#FFC487"/>
<stop offset="0.9839" stop-color="#F2588F"/>
</linearGradient>
<linearGradient id="paint7_linear_190_1597" x1="18.2781" y1="58.2087" x2="47.9605" y2="14.3273" gradientUnits="userSpaceOnUse">
<stop stop-color="#FFC487"/>
<stop offset="0.9839" stop-color="#F2588F"/>
</linearGradient>
<linearGradient id="paint8_linear_190_1597" x1="8.12533" y1="51.3413" x2="37.8078" y2="7.45982" gradientUnits="userSpaceOnUse">
<stop stop-color="#FFC487"/>
<stop offset="0.9839" stop-color="#F2588F"/>
</linearGradient>
<linearGradient id="paint9_linear_190_1597" x1="20.3627" y1="59.6189" x2="50.0451" y2="15.7374" gradientUnits="userSpaceOnUse">
<stop stop-color="#1FAECA"/>
<stop offset="1" stop-color="#73E98C"/>
</linearGradient>
<linearGradient id="paint10_linear_190_1597" x1="18.5081" y1="58.3645" x2="48.1906" y2="14.483" gradientUnits="userSpaceOnUse">
<stop stop-color="#1FAECA"/>
<stop offset="1" stop-color="#73E98C"/>
</linearGradient>
<linearGradient id="paint11_linear_190_1597" x1="9.08948" y1="51.9936" x2="38.7719" y2="8.11214" gradientUnits="userSpaceOnUse">
<stop stop-color="#1FAECA"/>
<stop offset="1" stop-color="#73E98C"/>
</linearGradient>
<linearGradient id="paint12_linear_190_1597" x1="7.23498" y1="50.7392" x2="36.9174" y2="6.85768" gradientUnits="userSpaceOnUse">
<stop stop-color="#1FAECA"/>
<stop offset="1" stop-color="#73E98C"/>
</linearGradient>
<linearGradient id="paint13_linear_190_1597" x1="-1.29259" y1="44.9708" x2="28.3898" y2="1.08928" gradientUnits="userSpaceOnUse">
<stop stop-color="#1FAECA"/>
<stop offset="1" stop-color="#73E98C"/>
</linearGradient>
<clipPath id="clip0_190_1597">
<rect width="41.5457" height="53.7054" fill="white" transform="translate(0 0.647217)"/>
</clipPath>
</defs>
</svg>
